<svg xmlns="http://www.w3.org/2000/svg" viewBox="0 0 32 32"><defs><style>.cls-1{fill:#ffffff;}</style></defs><title>icon</title><g id="Layer_2" data-name="Layer 2"><path class="cls-1" d="M16,30A14,14,0,1,1,30,16,14,14,0,0,1,16,30ZM16,3.06A12.94,12.94,0,1,0,28.94,16,12.95,12.95,0,0,0,16,3.06Z"/><path class="cls-1" d="M16,20.27A4.27,4.27,0,1,1,20.27,16,4.27,4.27,0,0,1,16,20.27Zm0-7.49A3.22,3.22,0,1,0,19.21,16,3.22,3.22,0,0,0,16,12.78Z"/><path class="cls-1" d="M16,25.63a9.23,9.23,0,0,1-1.48-.12.52.52,0,0,1-.42-.37l-.17-.58a.74.74,0,0,0-1.29-.41l-.47.36a.52.52,0,0,1-.57,0,9.73,9.73,0,0,1-2.39-1.73.53.53,0,0,1-.12-.55l.2-.57a.84.84,0,0,0,0-.8.8.8,0,0,0-.75-.29H7.9a.52.52,0,0,1-.49-.29,9.29,9.29,0,0,1-.91-2.8A.51.51,0,0,1,6.72,17l.5-.34A.89.89,0,0,0,7.66,16a.86.86,0,0,0-.44-.67L6.72,15a.5.5,0,0,1-.22-.52,9.29,9.29,0,0,1,.91-2.8.58.58,0,0,1,.49-.29h.6a.77.77,0,0,0,.75-.28.87.87,0,0,0,0-.81l-.2-.57a.53.53,0,0,1,.12-.55A9.73,9.73,0,0,1,11.6,7.44a.52.52,0,0,1,.57,0l.47.36a.74.74,0,0,0,1.29-.41l.17-.58a.52.52,0,0,1,.42-.37,9.79,9.79,0,0,1,3,0,.52.52,0,0,1,.42.37l.17.58a.74.74,0,0,0,1.29.41l.47-.36a.51.51,0,0,1,.57,0,9.73,9.73,0,0,1,2.39,1.73.55.55,0,0,1,.12.56l-.2.56a.87.87,0,0,0,0,.81.82.82,0,0,0,.75.28h.6a.55.55,0,0,1,.49.29,9.38,9.38,0,0,1,.91,2.8.5.5,0,0,1-.22.52l-.5.35a.86.86,0,0,0-.44.67.89.89,0,0,0,.44.68h0l.5.34a.51.51,0,0,1,.22.52,9.29,9.29,0,0,1-.91,2.8.5.5,0,0,1-.49.29h-.6a.83.83,0,0,0-.75.29.84.84,0,0,0,0,.8l.2.57a.53.53,0,0,1-.12.55,9.73,9.73,0,0,1-2.39,1.73.51.51,0,0,1-.57,0l-.47-.36a.74.74,0,0,0-1.29.41l-.17.58a.52.52,0,0,1-.42.37A9.23,9.23,0,0,1,16,25.63Zm-1-1.12a8.2,8.2,0,0,0,2,0l.07-.25a1.78,1.78,0,0,1,2.94-1l.21.16a9.13,9.13,0,0,0,1.59-1.16l-.09-.25a1.78,1.78,0,0,1,1.82-2.5h.26a8.27,8.27,0,0,0,.61-1.88l-.21-.14a1.9,1.9,0,0,1-.9-1.55,1.87,1.87,0,0,1,.9-1.54l.21-.15a8.27,8.27,0,0,0-.61-1.88h-.26a2,2,0,0,1-1.64-.73,1.91,1.91,0,0,1-.18-1.77l.09-.25a9.13,9.13,0,0,0-1.59-1.16L20,8.69a1.78,1.78,0,0,1-2.94-.95L17,7.49a8.2,8.2,0,0,0-2,0l-.07.25a1.91,1.91,0,0,1-1.19,1.33A1.89,1.89,0,0,1,12,8.69l-.21-.16A9.13,9.13,0,0,0,10.2,9.69l.09.25a1.88,1.88,0,0,1-.19,1.77,1.91,1.91,0,0,1-1.63.73H8.21a8.27,8.27,0,0,0-.61,1.88l.21.15A1.87,1.87,0,0,1,8.71,16a1.9,1.9,0,0,1-.9,1.55l-.21.14a8.27,8.27,0,0,0,.61,1.88h.26a2,2,0,0,1,1.63.73,1.85,1.85,0,0,1,.18,1.77l-.08.25a9.13,9.13,0,0,0,1.59,1.16l.21-.16a1.92,1.92,0,0,1,1.75-.38,1.93,1.93,0,0,1,1.19,1.33Z"/></g></svg>