<svg id="Logo" xmlns="http://www.w3.org/2000/svg" viewBox="0 0 925.13 331.09"><defs><style>.cls-1{fill:#1e1e1e;}.cls-2{fill:#76b900;}.cls-3{fill:#fff;}</style></defs><title>nvidia-gf-logo-rgb-for-screen</title><g id="NVIDIA_GeForce" data-name="NVIDIA GeForce"><polygon class="cls-1" points="364.88 57.54 307 273.54 307 273.54 798.88 273.54 856.76 57.54 364.88 57.54"/><polygon class="cls-2" points="856.76 57.54 798.88 273.54 809.71 273.54 867.58 57.54 856.76 57.54"/><polygon class="cls-2" points="57.54 57.54 57.54 273.54 307 273.54 364.88 57.54 57.54 57.54"/><g id="NVIDIA_Logo" data-name="NVIDIA Logo"><path id="NVIDIA" class="cls-3" d="M173.41,200.41V233h9.22V200.41Zm-72.47,0V233h9.29v-24.8h7.2c2.39,0,4.09.6,5.24,1.82,1.45,1.56,2,4.06,2,8.64V233h9V215c0-12.88-8.22-14.62-16.25-14.62H100.94m87.3,0V233h14.95c8,0,10.56-1.32,13.37-4.29,2-2.08,3.27-6.66,3.27-11.66,0-4.58-1.09-8.67-3-11.22-3.41-4.55-8.33-5.44-15.67-5.44Zm9.14,7.1h4c5.75,0,9.47,2.58,9.47,9.27s-3.72,9.28-9.47,9.28h-4Zm-37.25-7.1-7.69,25.85-7.37-25.85h-9.94L145.65,233h13.28l10.6-32.61Zm64,32.61h9.22V200.42h-9.22Zm25.83-32.6L237.07,233h9.09l2-5.76h15.23l1.92,5.76h9.87l-13-32.6Zm31.67,35.28a4.56,4.56,0,1,1,4.56-4.56A4.56,4.56,0,0,1,281.61,235.71Zm0-8.24a3.68,3.68,0,1,0,3.62,3.68A3.58,3.58,0,0,0,281.61,227.47Zm.82,6.1-.88-1.88H281v1.88H280v-4.85h2a1.54,1.54,0,0,1,1.61,1.53,1.37,1.37,0,0,1-.9,1.28l1,2Zm-.64-3.95H281v1.25h.76a.62.62,0,0,0,.66-.62A.63.63,0,0,0,281.79,229.62Zm-25.87-23.25,5.58,15.27H250.16Z"/><path id="Eye_Mark" data-name="Eye Mark" class="cls-3" d="M161.23,124v-7.83q1.14-.09,2.31-.12c21.44-.67,35.5,18.42,35.5,18.42s-15.19,21.09-31.47,21.09a19.88,19.88,0,0,1-6.34-1V130.78c8.35,1,10,4.7,15,13.06l11.16-9.41s-8.15-10.68-21.88-10.68a43.07,43.07,0,0,0-4.32.25m0-25.88v11.7c.77-.06,1.54-.11,2.31-.13,29.81-1,49.23,24.44,49.23,24.44s-22.31,27.12-45.54,27.12a33.49,33.49,0,0,1-6-.53V168a40.11,40.11,0,0,0,5,.32c21.63,0,37.27-11,52.41-24.11,2.51,2,12.79,6.9,14.9,9-14.4,12.06-47.95,21.77-67,21.77-1.84,0-3.6-.11-5.33-.28v10.17h82.19V98.12Zm0,56.43v6.17c-20-3.56-25.55-24.35-25.55-24.35A43.25,43.25,0,0,1,161.23,124v6.78h0c-8.37-1-14.91,6.81-14.91,6.81s3.67,13.17,14.94,17m-35.52-19.08a49.53,49.53,0,0,1,35.52-19.3v-6.35c-26.21,2.11-48.92,24.31-48.92,24.31s12.86,37.17,48.92,40.57V168C134.77,164.63,125.71,135.47,125.71,135.47Z"/></g><path class="cls-3" d="M396.76,146.38a9.62,9.62,0,0,1,9.62-9.62h36.45v10.38H411a3,3,0,0,0-3,2.87v27a3,3,0,0,0,.84,2l4,4.05a2.83,2.83,0,0,0,2.11.85h15.44a2.84,2.84,0,0,0,2.87-2.87V170.68H419.8V160.3h25v24.47a9.6,9.6,0,0,1-9.61,9.54H409.51a2.94,2.94,0,0,1-2.11-.85l-9.79-9.79a2.91,2.91,0,0,1-.85-2Z"/><path class="cls-3" d="M465.88,147v13.5h23.37v10.21H465.88V184.1H495v10.21H454.66V136.76H495V147Z"/><path class="cls-3" d="M514.59,194.31H503.37V136.76H543.7V147H514.59v13.5H538v10.21H514.59Z"/><path class="cls-3" d="M551.66,146.38a9.61,9.61,0,0,1,9.54-9.62h28.85a9.61,9.61,0,0,1,9.54,9.62v38.39a9.53,9.53,0,0,1-9.54,9.54H561.2a9.53,9.53,0,0,1-9.54-9.54Zm33.92,37.72a2.85,2.85,0,0,0,2.87-2.87V149.92a2.92,2.92,0,0,0-2.87-2.95H565.67a2.91,2.91,0,0,0-2.87,2.95v31.31a2.84,2.84,0,0,0,2.87,2.87Z"/><path class="cls-3" d="M657,194.31H645L630.8,170.85H620.25v23.46H609.11V136.76h34.51a9.62,9.62,0,0,1,9.62,9.62v14.85a9.61,9.61,0,0,1-9.62,9.62H643Zm-36.79-33.67H639a2.84,2.84,0,0,0,2.87-2.87v-7.85A2.91,2.91,0,0,0,639,147H620.25Z"/><path class="cls-3" d="M701.4,147H677a2.9,2.9,0,0,0-2.87,2.87v31.39A2.84,2.84,0,0,0,677,184.1H701.4v10.21H672.63a9.6,9.6,0,0,1-9.62-9.54V146.38a9.62,9.62,0,0,1,9.62-9.62H701.4Z"/><path class="cls-3" d="M721.83,147v13.5H745.2v10.21H721.83V184.1h29.11v10.21H710.61V136.76h40.33V147Z"/><path class="cls-3" d="M760.71,136.76a4.56,4.56,0,1,1-4.54,4.57A4.54,4.54,0,0,1,760.71,136.76Zm0,8.23a3.67,3.67,0,1,0-3.61-3.66A3.67,3.67,0,0,0,760.71,145Zm1.87-1.58h-1l-1.2-2H760v2h-.91v-4.23h2.73a.6.6,0,0,1,.65.65v1a.61.61,0,0,1-.65.65h-.39Zm-1.35-2.54c.18,0,.31-.08.31-.29v-.47c0-.15-.1-.26-.31-.26H760v1Z"/></g></svg>