<?xml version="1.0" encoding="utf-8"?>
<!-- Generator: Adobe Illustrator 24.1.1, SVG Export Plug-In . SVG Version: 6.00 Build 0)  -->
<svg version="1.1" id="Layer_1" xmlns="http://www.w3.org/2000/svg" xmlns:xlink="http://www.w3.org/1999/xlink" x="0px" y="0px"
	 viewBox="0 0 56 56" style="enable-background:new 0 0 56 56;" xml:space="preserve">
<style type="text/css">
	.st0{fill:#44D62C;}
</style>
<path class="st0" d="M28,0c-3.57,0-6.98,0.7-10.13,1.92c-0.09,0.02-0.17,0.05-0.24,0.09C7.32,6.14,0,16.23,0,28
	c0,15.44,12.56,28,28,28s28-12.56,28-28C56,12.56,43.44,0,28,0z M18.13,27.91c1.29,0,2.33,1.05,2.33,2.33
	c0,1.29-1.05,2.33-2.33,2.33c-1.28,0-2.33-1.04-2.33-2.33C15.8,28.95,16.84,27.91,18.13,27.91z M9.96,20.23
	c1.29,0,2.33,1.05,2.33,2.33c0,1.29-1.05,2.33-2.33,2.33c-1.28,0-2.33-1.04-2.33-2.33C7.63,21.27,8.67,20.23,9.96,20.23z
	 M37.71,28.28c-1.29,0-2.33-1.05-2.33-2.33c0-1.29,1.05-2.33,2.33-2.33c1.28,0,2.33,1.04,2.33,2.33
	C40.04,27.23,38.99,28.28,37.71,28.28z M45.88,35.96c-1.29,0-2.33-1.05-2.33-2.33c0-1.29,1.05-2.33,2.33-2.33
	c1.28,0,2.33,1.04,2.33,2.33C48.21,34.91,47.16,35.96,45.88,35.96z M46.93,45.6v-7.67c1.94-0.48,3.39-2.22,3.39-4.3
	c0-2.45-1.99-4.44-4.44-4.44c-2.45,0-4.44,1.99-4.44,4.44c0,2.08,1.45,3.83,3.39,4.3v9.65c0,0.02,0.01,0.03,0.01,0.05
	c-1.82,1.56-3.86,2.87-6.07,3.88V30.25c1.94-0.48,3.39-2.22,3.39-4.3c0-2.45-1.99-4.44-4.44-4.44c-2.45,0-4.44,1.99-4.44,4.44
	c0,2.08,1.45,3.83,3.39,4.3v22.12c-2.71,0.97-5.61,1.52-8.65,1.52c-6.86,0-13.08-2.7-17.72-7.07h7.52c0.48,1.94,2.22,3.39,4.3,3.39
	c2.45,0,4.44-1.99,4.44-4.44c0-2.45-1.99-4.44-4.44-4.44c-2.08,0-3.83,1.45-4.3,3.39H8.26c-1.54-1.82-2.83-3.86-3.83-6.06h21.05
	c0.48,1.94,2.22,3.39,4.3,3.39c2.45,0,4.44-1.99,4.44-4.44c0-2.45-1.99-4.44-4.44-4.44c-2.08,0-3.82,1.45-4.3,3.39H3.59
	C2.65,33.86,2.11,31,2.11,28c0-6.71,2.59-12.81,6.79-17.42v7.67c-1.94,0.48-3.39,2.22-3.39,4.3c0,2.45,1.99,4.44,4.44,4.44
	c2.45,0,4.44-1.99,4.44-4.44c0-2.08-1.45-3.83-3.39-4.3V8.67c0-0.05-0.02-0.09-0.03-0.13c1.82-1.59,3.87-2.93,6.08-3.97v21.37
	c-1.94,0.48-3.39,2.22-3.39,4.3c0,2.45,1.99,4.44,4.44,4.44c2.45,0,4.44-1.99,4.44-4.44c0-2.08-1.45-3.83-3.39-4.3V3.69
	c2.76-1,5.72-1.58,8.82-1.58c6.65,0,12.7,2.54,17.29,6.68h-7.83c-0.48-1.94-2.22-3.39-4.3-3.39c-2.45,0-4.44,1.99-4.44,4.44
	c0,2.45,1.99,4.44,4.44,4.44c2.08,0,3.83-1.45,4.3-3.39h9.59c0.1,0,0.19-0.03,0.28-0.06c1.62,1.83,2.99,3.88,4.05,6.11H29.79
	c-0.48-1.94-2.22-3.39-4.3-3.39c-2.45,0-4.44,1.99-4.44,4.44c0,2.45,1.99,4.44,4.44,4.44c2.08,0,3.83-1.45,4.3-3.39h22.48
	c1.03,2.79,1.62,5.79,1.62,8.93C53.89,34.8,51.23,40.97,46.93,45.6z M19.77,45.77c0-1.29,1.05-2.33,2.33-2.33
	c1.28,0,2.33,1.05,2.33,2.33s-1.04,2.33-2.33,2.33C20.82,48.1,19.77,47.05,19.77,45.77z M29.78,35.27c1.28,0,2.33,1.05,2.33,2.33
	s-1.04,2.33-2.33,2.33c-1.29,0-2.33-1.04-2.33-2.33S28.5,35.27,29.78,35.27z M35.5,9.85c0,1.29-1.05,2.33-2.33,2.33
	c-1.28,0-2.33-1.05-2.33-2.33s1.04-2.33,2.33-2.33C34.45,7.52,35.5,8.56,35.5,9.85z M27.82,18.01c0,1.29-1.05,2.33-2.33,2.33
	c-1.28,0-2.33-1.05-2.33-2.33c0-1.29,1.04-2.33,2.33-2.33C26.77,15.69,27.82,16.73,27.82,18.01z"/>
</svg>
