<?xml version="1.0" encoding="utf-8"?>
<!-- Generator: Adobe Illustrator 24.1.1, SVG Export Plug-In . SVG Version: 6.00 Build 0)  -->
<svg version="1.1" id="Layer_1" xmlns="http://www.w3.org/2000/svg" xmlns:xlink="http://www.w3.org/1999/xlink" x="0px" y="0px"
	 viewBox="0 0 56 56" style="enable-background:new 0 0 56 56;" xml:space="preserve">
<style type="text/css">
	.st0{fill:#44D62C;}
</style>
<g>
	<path class="st0" d="M28,0C12.54,0,0,12.54,0,28s12.54,28,28,28s28-12.54,28-28S43.46,0,28,0z M9.24,10.31v7.27H4.43
		C5.62,14.88,7.25,12.43,9.24,10.31z M2.24,28.12c-0.01-2.95,0.47-5.79,1.37-8.44H36.5v32.8c-2.59,0.89-5.37,1.38-8.26,1.39
		C13.95,53.95,2.31,42.41,2.24,28.12z M38.62,46.36h7.73c-2.22,2.2-4.84,4.01-7.73,5.29V46.36z M46.4,46.32v-2.08h-7.78v-3.52h7.78
		V38.6h-7.78v-3.52h7.78v-2.12h-7.78v-3.52h7.78v-2.12h-7.78v-3.54h7.78v-2.12h-7.78v-4.08h-4.78V9.1h-2.1v8.48h-3.52V9.1h-2.1v8.48
		H22.6V9.1h-2.1v8.48h-3.54V9.1h-2.1v8.48h-3.52V9.1h-0.89C15.04,4.8,21.21,2.15,28,2.12c0.04,0,0.08,0,0.12,0
		C42.41,2.12,54,13.71,54,28C54,35.15,51.1,41.63,46.4,46.32z"/>
	<path class="st0" d="M8.62,33.9c0,3.1,0.76,4.78,3.78,4.78c1.06-0.04,2.11-0.14,3.16-0.3v-4.8h-2.7v1.64l0.94,0.06v1.78
		c0,0-0.58,0-1.12,0c-1.66,0-2-0.56-2-3.16c0-2.6,0.4-3.24,2-3.24c1.24,0,2.88,0.18,2.88,0.18v-1.46c-1.07-0.22-2.15-0.35-3.24-0.38
		C9.58,29,8.62,30.8,8.62,33.9z"/>
	<path class="st0" d="M23.99,31.56c-0.23-1.57-1.7-2.66-3.27-2.42h-3.4v9.42h1.88V35.7h1.5c0.24,0.03,0.48,0.03,0.72,0
		c1.63-0.21,2.79-1.7,2.58-3.34C24.03,32.1,24.03,31.83,23.99,31.56z M20.72,34.1H19.2v-3.36h1.52c0.94,0,1.4,0.46,1.4,1.62
		S21.66,34.1,20.72,34.1z"/>
	<path class="st0" d="M30.44,29.14v6.3c0.02,0.14,0.02,0.27,0,0.41c-0.12,0.79-0.85,1.33-1.64,1.21c-1.12,0-1.66-0.52-1.66-1.62
		v-6.3h-1.88v6.26c0,2.32,1.24,3.28,3.54,3.28s3.52-0.96,3.52-3.28v-6.26H30.44z"/>
</g>
</svg>
