<?xml version="1.0" encoding="utf-8"?>
<!-- Generator: Adobe Illustrator 24.1.1, SVG Export Plug-In . SVG Version: 6.00 Build 0)  -->
<svg version="1.1" id="Layer_1" xmlns="http://www.w3.org/2000/svg" xmlns:xlink="http://www.w3.org/1999/xlink" x="0px" y="0px"
	 viewBox="0 0 56 56" style="enable-background:new 0 0 56 56;" xml:space="preserve">
<style type="text/css">
	.st0{fill:#44D62C;}
</style>
<g id="Layer_2_1_">
	<g>
		<path class="st0" d="M28,0C12.54,0,0,12.54,0,28s12.54,28,28,28s28-12.54,28-28S43.46,0,28,0z M28,53.82
			C13.74,53.82,2.18,42.26,2.18,28S13.74,2.18,28,2.18S53.82,13.74,53.82,28C53.81,42.26,42.26,53.81,28,53.82z"/>
		<path class="st0" d="M44.78,17.84H42.1v-2.76c0.08-0.6-0.34-1.16-0.94-1.24c-0.6-0.08-1.16,0.34-1.24,0.94
			c-0.01,0.1-0.01,0.2,0,0.3v2.76H36.9v-2.76c-0.01-0.6-0.5-1.08-1.1-1.08c-0.6,0.01-1.08,0.5-1.08,1.1v2.76H31.7v-2.78
			c0-0.61-0.49-1.1-1.1-1.1c-0.61,0-1.1,0.49-1.1,1.1v2.76h-3v-2.76c0-0.61-0.49-1.1-1.1-1.1s-1.1,0.49-1.1,1.1v2.76h-3.02v-2.76
			c-0.01-0.59-0.49-1.07-1.08-1.08c-0.61,0-1.1,0.49-1.1,1.1l0,0v2.76H16v-2.78c0.25-0.55,0.01-1.21-0.54-1.46s-1.21-0.01-1.46,0.54
			c-0.13,0.29-0.13,0.63,0,0.92v2.76h-2.78c-0.96-0.06-1.78,0.67-1.84,1.63c0,0,0,0,0,0.01v17.06c0.06,0.95,0.89,1.68,1.84,1.62H14
			v2.76c-0.08,0.6,0.34,1.16,0.94,1.24c0.6,0.08,1.16-0.34,1.24-0.94c0.01-0.1,0.01-0.2,0-0.3v-2.76h3.02v2.76
			c0,0.61,0.49,1.1,1.1,1.1c0.6-0.01,1.08-0.5,1.08-1.1v-2.76h3.02v2.76c0,0.61,0.49,1.1,1.1,1.1s1.1-0.49,1.1-1.1v-2.76h3v2.76
			c0,0.61,0.49,1.1,1.1,1.1c0.61,0,1.1-0.49,1.1-1.1v-2.76h3.02v2.76c0,0.6,0.48,1.09,1.08,1.1c0.61,0,1.1-0.49,1.1-1.1v-2.76h3
			v2.76c-0.08,0.6,0.34,1.16,0.94,1.24c0.6,0.08,1.16-0.34,1.24-0.94c0.01-0.1,0.01-0.2,0-0.3v-2.76h2.68
			c0.95,0.06,1.78-0.67,1.84-1.62V19.48c-0.05-0.96-0.87-1.7-1.83-1.65C44.84,17.83,44.81,17.84,44.78,17.84z M44.44,36H11.56V20
			h32.88V36z"/>
	</g>
</g>
</svg>
